<mxfile host="drawio-plugin" modified="2023-11-16T11:07:21.847Z" agent="5.0 (Windows NT 6.2; Win64; x64) AppleWebKit/537.36 (KHTML, like Gecko) Chrome/89.0.4389.90 Safari/537.36" etag="HdbZNc5iFgizi0VZjG-j" version="20.5.3" type="embed"><diagram id="23iRSUPoRavnBvh4doch" name="Page-1"><mxGraphModel dx="554" dy="375" grid="1" gridSize="10" guides="1" tooltips="1" connect="1" arrows="1" fold="1" page="1" pageScale="1" pageWidth="827" pageHeight="1169" math="0" shadow="0"><root><mxCell id="0"/><mxCell id="1" parent="0"/><mxCell id="4" style="edgeStyle=orthogonalEdgeStyle;orthogonalLoop=1;jettySize=auto;html=1;exitX=0;exitY=0;exitDx=80;exitDy=65;exitPerimeter=0;entryX=0;entryY=0.5;entryDx=0;entryDy=0;curved=1;" parent="1" source="2" target="3" edge="1"><mxGeometry relative="1" as="geometry"/></mxCell><mxCell id="2" value="ServiceEntry&lt;br&gt;config external whitelist" style="shape=note;whiteSpace=wrap;html=1;backgroundOutline=1;darkOpacity=0.05;fillColor=#fff2cc;strokeColor=#d6b656;" parent="1" vertex="1"><mxGeometry x="70" y="90" width="80" height="100" as="geometry"/></mxCell><mxCell id="13" style="edgeStyle=orthogonalEdgeStyle;curved=1;orthogonalLoop=1;jettySize=auto;html=1;exitX=0.5;exitY=1;exitDx=0;exitDy=0;startArrow=classic;startFill=1;" parent="1" source="3" target="7" edge="1"><mxGeometry relative="1" as="geometry"/></mxCell><mxCell id="14" style="edgeStyle=orthogonalEdgeStyle;curved=1;orthogonalLoop=1;jettySize=auto;html=1;exitX=0.5;exitY=1;exitDx=0;exitDy=0;entryX=0.5;entryY=0;entryDx=0;entryDy=0;startArrow=classic;startFill=1;" parent="1" source="3" target="10" edge="1"><mxGeometry relative="1" as="geometry"/></mxCell><mxCell id="3" value="istiod service registry" style="whiteSpace=wrap;html=1;aspect=fixed;" parent="1" vertex="1"><mxGeometry x="210" y="100" width="80" height="80" as="geometry"/></mxCell><mxCell id="6" style="edgeStyle=orthogonalEdgeStyle;curved=1;orthogonalLoop=1;jettySize=auto;html=1;exitX=0;exitY=0.5;exitDx=0;exitDy=0;" parent="1" source="5" target="3" edge="1"><mxGeometry relative="1" as="geometry"/></mxCell><mxCell id="5" value="Kubernetes API/registry" style="whiteSpace=wrap;html=1;aspect=fixed;" parent="1" vertex="1"><mxGeometry x="334" y="100" width="80" height="80" as="geometry"/></mxCell><mxCell id="7" value="pod1" style="swimlane;" parent="1" vertex="1"><mxGeometry x="130" y="240" width="110" height="150" as="geometry"/></mxCell><mxCell id="8" value="app1" style="rounded=0;whiteSpace=wrap;html=1;" parent="7" vertex="1"><mxGeometry x="10" y="100" width="90" height="40" as="geometry"/></mxCell><mxCell id="9" value="istio proxy" style="rounded=0;whiteSpace=wrap;html=1;" parent="7" vertex="1"><mxGeometry x="10" y="30" width="90" height="50" as="geometry"/></mxCell><mxCell id="17" style="edgeStyle=orthogonalEdgeStyle;orthogonalLoop=1;jettySize=auto;html=1;exitX=1;exitY=0.5;exitDx=0;exitDy=0;curved=1;" parent="1" source="10" target="16" edge="1"><mxGeometry relative="1" as="geometry"/></mxCell><mxCell id="19" style="edgeStyle=orthogonalEdgeStyle;curved=1;orthogonalLoop=1;jettySize=auto;html=1;exitX=1;exitY=0.5;exitDx=0;exitDy=0;entryX=0;entryY=0.5;entryDx=0;entryDy=0;strokeColor=#FF0000;startArrow=none;" parent="1" source="20" target="18" edge="1"><mxGeometry relative="1" as="geometry"/></mxCell><mxCell id="10" value="pod2" style="swimlane;" parent="1" vertex="1"><mxGeometry x="290" y="240" width="110" height="150" as="geometry"/></mxCell><mxCell id="11" value="app2" style="rounded=0;whiteSpace=wrap;html=1;" parent="10" vertex="1"><mxGeometry x="10" y="100" width="90" height="40" as="geometry"/></mxCell><mxCell id="12" value="istio proxy" style="rounded=0;whiteSpace=wrap;html=1;" parent="10" vertex="1"><mxGeometry x="10" y="30" width="90" height="50" as="geometry"/></mxCell><object placeholders="1" c4Name="Cluster" c4Type="SystemScopeBoundary" c4Application="Cluster" label="&lt;font style=&quot;font-size: 16px&quot;&gt;&lt;b&gt;&lt;div style=&quot;text-align: left&quot;&gt;%c4Name%&lt;/div&gt;&lt;/b&gt;&lt;/font&gt;&lt;div style=&quot;text-align: left&quot;&gt;[%c4Application%]&lt;/div&gt;" id="15"><mxCell style="rounded=1;fontSize=11;whiteSpace=wrap;html=1;dashed=1;arcSize=20;fillColor=none;strokeColor=#666666;fontColor=#333333;labelBackgroundColor=none;align=left;verticalAlign=bottom;labelBorderColor=none;spacingTop=0;spacing=10;dashPattern=8 4;metaEdit=1;rotatable=0;perimeter=rectanglePerimeter;noLabel=0;labelPadding=0;allowArrows=0;connectable=0;expand=0;recursiveResize=0;editable=1;pointerEvents=0;absoluteArcSize=1;points=[[0.25,0,0],[0.5,0,0],[0.75,0,0],[1,0.25,0],[1,0.5,0],[1,0.75,0],[0.75,1,0],[0.5,1,0],[0.25,1,0],[0,0.75,0],[0,0.5,0],[0,0.25,0]];" parent="1" vertex="1"><mxGeometry x="40" y="80" width="420" height="360" as="geometry"/></mxCell></object><mxCell id="16" value="Allowed services" style="rounded=0;whiteSpace=wrap;html=1;" parent="1" vertex="1"><mxGeometry x="540" y="190" width="120" height="60" as="geometry"/></mxCell><mxCell id="18" value="Other services&lt;br&gt;will be blocked" style="rounded=0;whiteSpace=wrap;html=1;" parent="1" vertex="1"><mxGeometry x="540" y="330" width="120" height="60" as="geometry"/></mxCell><mxCell id="20" value="" style="verticalLabelPosition=bottom;verticalAlign=top;html=1;shape=mxgraph.basic.x;strokeColor=#FF0000;fillColor=#FF0000;" parent="1" vertex="1"><mxGeometry x="470" y="340" width="30" height="20" as="geometry"/></mxCell><mxCell id="21" value="" style="edgeStyle=orthogonalEdgeStyle;curved=1;orthogonalLoop=1;jettySize=auto;html=1;exitX=1;exitY=0.5;exitDx=0;exitDy=0;entryX=0;entryY=0.5;entryDx=0;entryDy=0;strokeColor=#FF0000;endArrow=none;" parent="1" source="10" target="20" edge="1"><mxGeometry relative="1" as="geometry"><mxPoint x="400" y="315" as="sourcePoint"/><mxPoint x="540" y="360" as="targetPoint"/></mxGeometry></mxCell></root></mxGraphModel></diagram></mxfile>